<svg xmlns="http://www.w3.org/2000/svg">
	<symbol id="logo" viewBox="0 0 37 45">
		<path d="M5.40351 13.1864L18.4998 0L31.5961 13.1864C35.1984 16.8133 37 21.5935 37 26.3728C37 31.1521 35.1984 35.9323 31.5961 39.5592C29.1392 42.0328 26.1499 43.6627 22.9913 44.4496V42.305C25.6144 41.5641 28.0872 40.1599 30.14 38.093C33.3399 34.8706 34.9404 30.6221 34.9404 26.3728C34.9404 22.1235 33.3399 17.8746 30.14 14.6526L18.4998 2.93243L6.8596 14.6526C3.6592 17.8746 2.05922 22.1235 2.05922 26.3728C2.05922 30.6221 3.65963 34.871 6.8596 38.093C9.8123 41.0662 13.6339 42.6679 17.5223 42.8975V38.741C14.6911 38.5179 11.9223 37.3247 9.7731 35.1605C7.3757 32.7468 6.17765 29.5592 6.17765 26.3728C6.17765 23.1864 7.3757 19.9988 9.77223 17.5855L18.4998 8.79774L27.2269 17.5855C29.6239 19.9988 30.8223 23.1864 30.8223 26.3728C30.8223 29.5592 29.6239 32.7468 27.2278 35.1597C25.9862 36.4097 24.5383 37.336 22.9913 37.9385V35.6801C23.9985 35.1922 24.9402 34.5303 25.7704 33.6943C27.7654 31.6856 28.7627 29.0296 28.7627 26.3728C28.7627 23.716 27.7654 21.06 25.7717 19.0521L19.5819 12.8196V29.1902V36.6498V38.7328V42.891V44.9683C19.2214 44.9896 18.8608 45 18.4998 45C13.7537 45 9.00584 43.1861 5.40351 39.5592C1.80117 35.9323 0 31.1521 0 26.3728C0 21.5935 1.80117 16.8133 5.40351 13.1864ZM17.5223 21.7293L8.73444 29.5791C9.21564 31.0883 10.0475 32.5046 11.2283 33.6935L11.3132 33.7781L17.5223 28.0517V21.7293ZM8.27176 27.2314L17.5223 18.9684V12.7142L11.2288 19.0517C9.23417 21.06 8.23687 23.716 8.23687 26.3728C8.23687 26.6593 8.2485 26.9457 8.27176 27.2314ZM17.5223 30.8509L12.9377 35.0789C14.3383 35.9813 15.9154 36.5087 17.5223 36.6602V30.8509Z"/>
	</symbol>

	<symbol id="black-logo" viewBox="0 0 37 45">
		<path d="M5.40351 13.1864L18.4998 0L31.5961 13.1864C35.1984 16.8133 37 21.5935 37 26.3728C37 31.1521 35.1984 35.9323 31.5961 39.5592C29.1392 42.0328 26.1499 43.6627 22.9913 44.4496V42.305C25.6144 41.5641 28.0872 40.1599 30.14 38.093C33.3399 34.8706 34.9404 30.6221 34.9404 26.3728C34.9404 22.1235 33.3399 17.8746 30.14 14.6526L18.4998 2.93243L6.8596 14.6526C3.6592 17.8746 2.05922 22.1235 2.05922 26.3728C2.05922 30.6221 3.65963 34.871 6.8596 38.093C9.8123 41.0662 13.6339 42.6679 17.5223 42.8975V38.741C14.6911 38.5179 11.9223 37.3247 9.7731 35.1605C7.3757 32.7468 6.17765 29.5592 6.17765 26.3728C6.17765 23.1864 7.3757 19.9988 9.77223 17.5855L18.4998 8.79774L27.2269 17.5855C29.6239 19.9988 30.8223 23.1864 30.8223 26.3728C30.8223 29.5592 29.6239 32.7468 27.2278 35.1597C25.9862 36.4097 24.5383 37.336 22.9913 37.9385V35.6801C23.9985 35.1922 24.9402 34.5303 25.7704 33.6943C27.7654 31.6856 28.7627 29.0296 28.7627 26.3728C28.7627 23.716 27.7654 21.06 25.7717 19.0521L19.5819 12.8196V29.1902V36.6498V38.7328V42.891V44.9683C19.2214 44.9896 18.8608 45 18.4998 45C13.7537 45 9.00584 43.1861 5.40351 39.5592C1.80117 35.9323 0 31.1521 0 26.3728C0 21.5935 1.80117 16.8133 5.40351 13.1864ZM17.5223 21.7293L8.73444 29.5791C9.21564 31.0883 10.0475 32.5046 11.2283 33.6935L11.3132 33.7781L17.5223 28.0517V21.7293ZM8.27176 27.2314L17.5223 18.9684V12.7142L11.2288 19.0517C9.23417 21.06 8.23687 23.716 8.23687 26.3728C8.23687 26.6593 8.2485 26.9457 8.27176 27.2314ZM17.5223 30.8509L12.9377 35.0789C14.3383 35.9813 15.9154 36.5087 17.5223 36.6602V30.8509Z" fill="black"/>
	</symbol>

	<symbol id="basket" viewBox="0 0 24 24">
		<g clip-path="url(#clip0_38_33)">
			<path d="M8.6355 1.6065C8.72002 1.65711 8.79374 1.72388 8.85245 1.80299C8.91116 1.8821 8.95371 1.972 8.97767 2.06756C9.00163 2.16311 9.00652 2.26245 8.99208 2.3599C8.97764 2.45735 8.94414 2.551 8.8935 2.6355L5.0745 9H18.9255L15.105 2.6355C15.0028 2.46484 14.9725 2.26054 15.0209 2.06757C15.0693 1.87459 15.1923 1.70874 15.363 1.6065C15.5337 1.50426 15.738 1.474 15.9309 1.52239C16.1239 1.57077 16.2898 1.69384 16.392 1.8645L20.6745 9H22.5C22.8978 9 23.2794 9.15804 23.5607 9.43934C23.842 9.72065 24 10.1022 24 10.5V12C24 12.3978 23.842 12.7794 23.5607 13.0607C23.2794 13.342 22.8978 13.5 22.5 13.5V20.25C22.5 21.2446 22.1049 22.1984 21.4016 22.9017C20.6984 23.6049 19.7446 24 18.75 24H5.25C4.25544 24 3.30161 23.6049 2.59835 22.9017C1.89509 22.1984 1.5 21.2446 1.5 20.25V13.5C1.10218 13.5 0.720644 13.342 0.43934 13.0607C0.158035 12.7794 0 12.3978 0 12V10.5C0 10.1022 0.158035 9.72065 0.43934 9.43934C0.720644 9.15804 1.10218 9 1.5 9H3.3255L7.605 1.8645C7.65561 1.77998 7.72238 1.70626 7.80149 1.64755C7.8806 1.58884 7.9705 1.54629 8.06605 1.52233C8.16161 1.49838 8.26095 1.49348 8.3584 1.50792C8.45585 1.52236 8.5495 1.55586 8.634 1.6065H8.6355ZM3 13.5V20.25C3 20.8467 3.23705 21.419 3.65901 21.841C4.08097 22.263 4.65326 22.5 5.25 22.5H18.75C19.3467 22.5 19.919 22.263 20.341 21.841C20.7629 21.419 21 20.8467 21 20.25V13.5H3ZM1.5 10.5V12H22.5V10.5H1.5ZM6 15C6.19891 15 6.38968 15.079 6.53033 15.2197C6.67098 15.3603 6.75 15.5511 6.75 15.75V20.25C6.75 20.4489 6.67098 20.6397 6.53033 20.7803C6.38968 20.921 6.19891 21 6 21C5.80109 21 5.61032 20.921 5.46967 20.7803C5.32902 20.6397 5.25 20.4489 5.25 20.25V15.75C5.25 15.5511 5.32902 15.3603 5.46967 15.2197C5.61032 15.079 5.80109 15 6 15ZM9 15C9.19891 15 9.38968 15.079 9.53033 15.2197C9.67098 15.3603 9.75 15.5511 9.75 15.75V20.25C9.75 20.4489 9.67098 20.6397 9.53033 20.7803C9.38968 20.921 9.19891 21 9 21C8.80109 21 8.61032 20.921 8.46967 20.7803C8.32902 20.6397 8.25 20.4489 8.25 20.25V15.75C8.25 15.5511 8.32902 15.3603 8.46967 15.2197C8.61032 15.079 8.80109 15 9 15ZM12 15C12.1989 15 12.3897 15.079 12.5303 15.2197C12.671 15.3603 12.75 15.5511 12.75 15.75V20.25C12.75 20.4489 12.671 20.6397 12.5303 20.7803C12.3897 20.921 12.1989 21 12 21C11.8011 21 11.6103 20.921 11.4697 20.7803C11.329 20.6397 11.25 20.4489 11.25 20.25V15.75C11.25 15.5511 11.329 15.3603 11.4697 15.2197C11.6103 15.079 11.8011 15 12 15ZM15 15C15.1989 15 15.3897 15.079 15.5303 15.2197C15.671 15.3603 15.75 15.5511 15.75 15.75V20.25C15.75 20.4489 15.671 20.6397 15.5303 20.7803C15.3897 20.921 15.1989 21 15 21C14.8011 21 14.6103 20.921 14.4697 20.7803C14.329 20.6397 14.25 20.4489 14.25 20.25V15.75C14.25 15.5511 14.329 15.3603 14.4697 15.2197C14.6103 15.079 14.8011 15 15 15ZM18 15C18.1989 15 18.3897 15.079 18.5303 15.2197C18.671 15.3603 18.75 15.5511 18.75 15.75V20.25C18.75 20.4489 18.671 20.6397 18.5303 20.7803C18.3897 20.921 18.1989 21 18 21C17.8011 21 17.6103 20.921 17.4697 20.7803C17.329 20.6397 17.25 20.4489 17.25 20.25V15.75C17.25 15.5511 17.329 15.3603 17.4697 15.2197C17.6103 15.079 17.8011 15 18 15Z"/>
			</g>
			<defs>
				<clipPath id="clip0_38_33">
					<rect width="24" height="24" fill="white"/>
				</clipPath>
			</defs>
	</symbol>

	<symbol id="account" viewBox="0 0 24 24">
		<g clip-path="url(#clip0_38_35)">
			<path d="M16.5 9C16.5 10.1935 16.0259 11.3381 15.182 12.182C14.3381 13.0259 13.1935 13.5 12 13.5C10.8065 13.5 9.66193 13.0259 8.81802 12.182C7.97411 11.3381 7.5 10.1935 7.5 9C7.5 7.80653 7.97411 6.66193 8.81802 5.81802C9.66193 4.97411 10.8065 4.5 12 4.5C13.1935 4.5 14.3381 4.97411 15.182 5.81802C16.0259 6.66193 16.5 7.80653 16.5 9Z" />
			<path fill-rule="evenodd" clip-rule="evenodd" d="M0 12C0 8.8174 1.26428 5.76516 3.51472 3.51472C5.76516 1.26428 8.8174 0 12 0C15.1826 0 18.2348 1.26428 20.4853 3.51472C22.7357 5.76516 24 8.8174 24 12C24 15.1826 22.7357 18.2348 20.4853 20.4853C18.2348 22.7357 15.1826 24 12 24C8.8174 24 5.76516 22.7357 3.51472 20.4853C1.26428 18.2348 0 15.1826 0 12ZM12 1.5C10.0227 1.50011 8.08555 2.05854 6.4116 3.11104C4.73766 4.16354 3.39492 5.66732 2.53795 7.44929C1.68097 9.23127 1.34458 11.219 1.5675 13.1837C1.79042 15.1485 2.56358 17.0103 3.798 18.555C4.863 16.839 7.2075 15 12 15C16.7925 15 19.1355 16.8375 20.202 18.555C21.4364 17.0103 22.2096 15.1485 22.4325 13.1837C22.6554 11.219 22.319 9.23127 21.4621 7.44929C20.6051 5.66732 19.2623 4.16354 17.5884 3.11104C15.9145 2.05854 13.9773 1.50011 12 1.5Z" />
			</g>
			<defs>
				<clipPath id="clip0_38_35">
					<rect width="24" height="24" fill="white"/>
				</clipPath>
			</defs>
	</symbol>

	<symbol id="twitter" viewBox="0 0 24 24">
		<path d="M12 2C6.48 2 2 6.48 2 12C2 17.52 6.48 22 12 22C17.52 22 22 17.52 22 12C22 6.48 17.52 2 12 2ZM16.64 8.8C16.49 10.38 15.84 14.22 15.51 15.99C15.37 16.74 15.09 16.99 14.83 17.02C14.25 17.07 13.81 16.64 13.25 16.27C12.37 15.69 11.87 15.33 11.02 14.77C10.03 14.12 10.67 13.76 11.24 13.18C11.39 13.03 13.95 10.7 14 10.49C14.0069 10.4582 14.006 10.4252 13.9973 10.3938C13.9886 10.3624 13.9724 10.3337 13.95 10.31C13.89 10.26 13.81 10.28 13.74 10.29C13.65 10.31 12.25 11.24 9.52 13.08C9.12 13.35 8.76 13.49 8.44 13.48C8.08 13.47 7.4 13.28 6.89 13.11C6.26 12.91 5.77 12.8 5.81 12.45C5.83 12.27 6.08 12.09 6.55 11.9C9.47 10.63 11.41 9.79 12.38 9.39C15.16 8.23 15.73 8.03 16.11 8.03C16.19 8.03 16.38 8.05 16.5 8.15C16.6 8.23 16.63 8.34 16.64 8.42C16.63 8.48 16.65 8.66 16.64 8.8Z" fill="white"/>
	</symbol>

	<symbol id="linkedin" viewBox="0 0 24 24">
		<path d="M19.0498 4.91006C18.133 3.98399 17.041 3.24973 15.8374 2.75011C14.6339 2.25049 13.3429 1.99552 12.0398 2.00006C6.5798 2.00006 2.1298 6.45006 2.1298 11.9101C2.1298 13.6601 2.5898 15.3601 3.4498 16.8601L2.0498 22.0001L7.2998 20.6201C8.7498 21.4101 10.3798 21.8301 12.0398 21.8301C17.4998 21.8301 21.9498 17.3801 21.9498 11.9201C21.9498 9.27006 20.9198 6.78006 19.0498 4.91006ZM12.0398 20.1501C10.5598 20.1501 9.1098 19.7501 7.8398 19.0001L7.5398 18.8201L4.4198 19.6401L5.2498 16.6001L5.0498 16.2901C4.22755 14.977 3.79094 13.4593 3.7898 11.9101C3.7898 7.37006 7.4898 3.67006 12.0298 3.67006C14.2298 3.67006 16.2998 4.53006 17.8498 6.09006C18.6173 6.85402 19.2255 7.76272 19.6392 8.76348C20.0529 9.76425 20.2638 10.8372 20.2598 11.9201C20.2798 16.4601 16.5798 20.1501 12.0398 20.1501ZM16.5598 13.9901C16.3098 13.8701 15.0898 13.2701 14.8698 13.1801C14.6398 13.1001 14.4798 13.0601 14.3098 13.3001C14.1398 13.5501 13.6698 14.1101 13.5298 14.2701C13.3898 14.4401 13.2398 14.4601 12.9898 14.3301C12.7398 14.2101 11.9398 13.9401 10.9998 13.1001C10.2598 12.4401 9.7698 11.6301 9.6198 11.3801C9.4798 11.1301 9.5998 11.0001 9.7298 10.8701C9.8398 10.7601 9.9798 10.5801 10.0998 10.4401C10.2198 10.3001 10.2698 10.1901 10.3498 10.0301C10.4298 9.86006 10.3898 9.72006 10.3298 9.60006C10.2698 9.48006 9.7698 8.26006 9.5698 7.76006C9.3698 7.28006 9.1598 7.34006 9.0098 7.33006H8.5298C8.3598 7.33006 8.0998 7.39006 7.8698 7.64006C7.6498 7.89006 7.0098 8.49006 7.0098 9.71006C7.0098 10.9301 7.8998 12.1101 8.0198 12.2701C8.1398 12.4401 9.7698 14.9401 12.2498 16.0101C12.8398 16.2701 13.2998 16.4201 13.6598 16.5301C14.2498 16.7201 14.7898 16.6901 15.2198 16.6301C15.6998 16.5601 16.6898 16.0301 16.8898 15.4501C17.0998 14.8701 17.0998 14.3801 17.0298 14.2701C16.9598 14.1601 16.8098 14.1101 16.5598 13.9901Z" fill="white"/>
	</symbol>

	<symbol id="facebook" viewBox="0 0 24 24">
		<path d="M10.076 11C10.676 11 11.162 11.45 11.151 12C11.151 12.55 10.677 13 10.076 13C9.486 13 9 12.55 9 12C9 11.45 9.475 11 10.076 11ZM13.924 11C14.525 11 15 11.45 15 12C15 12.55 14.525 13 13.924 13C13.334 13 12.849 12.55 12.849 12C12.849 11.45 13.323 11 13.924 11ZM18.891 2C20.054 2 21 2.966 21 4.163V23L18.789 21.005L17.544 19.829L16.227 18.579L16.773 20.522H5.109C3.946 20.522 3 19.556 3 18.359V4.163C3 2.966 3.946 2 5.109 2H18.89H18.891ZM14.921 15.713C17.194 15.64 18.069 14.117 18.069 14.117C18.069 10.736 16.587 7.995 16.587 7.995C15.107 6.862 13.697 6.893 13.697 6.893L13.553 7.061C15.302 7.607 16.114 8.395 16.114 8.395C15.1591 7.85699 14.1066 7.51434 13.018 7.387C12.3274 7.309 11.6299 7.31572 10.941 7.407C10.879 7.407 10.827 7.418 10.766 7.428C10.406 7.46 9.531 7.596 8.431 8.09C8.051 8.268 7.824 8.395 7.824 8.395C7.824 8.395 8.678 7.565 10.529 7.019L10.426 6.893C10.426 6.893 9.017 6.862 7.536 7.996C7.536 7.996 6.055 10.736 6.055 14.117C6.055 14.117 6.919 15.639 9.192 15.713C9.192 15.713 9.572 15.241 9.882 14.842C8.575 14.442 8.082 13.602 8.082 13.602C8.082 13.602 8.184 13.676 8.369 13.781C8.379 13.791 8.389 13.802 8.41 13.812C8.441 13.834 8.472 13.844 8.503 13.865C8.76 14.012 9.017 14.127 9.253 14.222C9.675 14.39 10.179 14.558 10.766 14.674C11.6453 14.8464 12.5494 14.8498 13.43 14.684C13.9429 14.5925 14.4433 14.4411 14.921 14.233C15.281 14.096 15.682 13.896 16.104 13.613C16.104 13.613 15.59 14.474 14.242 14.863C14.551 15.262 14.922 15.713 14.922 15.713H14.921Z" fill="white"/>
	</symbol>

	<symbol id="instagram" viewBox="0 0 24 24">
		<path d="M15.073 2H8.937C3.333 2 2 3.333 2 8.927V15.063C2 20.666 3.323 22 8.927 22H15.063C20.666 22 22 20.677 22 15.073V8.937C22 3.333 20.677 2 15.073 2ZM18.146 16.27H16.687C16.135 16.27 15.969 15.823 14.979 14.833C14.115 14 13.75 13.896 13.531 13.896C13.229 13.896 13.146 13.979 13.146 14.396V15.708C13.146 16.063 13.031 16.271 12.104 16.271C11.2043 16.2105 10.3319 15.9372 9.5586 15.4735C8.78527 15.0098 8.13317 14.3691 7.656 13.604C6.52317 12.194 5.73494 10.5391 5.354 8.771C5.354 8.552 5.437 8.354 5.854 8.354H7.312C7.687 8.354 7.822 8.521 7.969 8.906C8.677 10.99 9.885 12.802 10.375 12.802C10.563 12.802 10.645 12.719 10.645 12.25V10.104C10.583 9.125 10.063 9.042 10.063 8.688C10.0697 8.59463 10.1125 8.50753 10.1823 8.44518C10.2521 8.38283 10.3435 8.35012 10.437 8.354H12.729C13.042 8.354 13.146 8.51 13.146 8.885V11.781C13.146 12.094 13.281 12.198 13.375 12.198C13.563 12.198 13.708 12.094 14.052 11.75C14.7909 10.8489 15.3945 9.84508 15.844 8.77C15.8899 8.64086 15.9769 8.5303 16.0915 8.45519C16.2062 8.38008 16.3423 8.34454 16.479 8.354H17.938C18.375 8.354 18.468 8.573 18.375 8.885C17.8445 10.0734 17.1881 11.2015 16.417 12.25C16.26 12.49 16.197 12.615 16.417 12.896C16.562 13.115 17.073 13.542 17.417 13.948C17.9169 14.4466 18.332 15.0236 18.646 15.656C18.771 16.062 18.562 16.27 18.146 16.27Z" fill="white"/>
	</symbol>

	<symbol id="add-to-cart" viewBox="0 0 24 24">
		<path d="M11 9V6H8V4H11V1H13V4H16V6H13V9H11ZM7 22C6.45 22 5.97933 21.8043 5.588 21.413C5.196 21.021 5 20.55 5 20C5 19.45 5.196 18.979 5.588 18.587C5.97933 18.1957 6.45 18 7 18C7.55 18 8.02067 18.1957 8.412 18.587C8.804 18.979 9 19.45 9 20C9 20.55 8.804 21.021 8.412 21.413C8.02067 21.8043 7.55 22 7 22ZM17 22C16.45 22 15.9793 21.8043 15.588 21.413C15.196 21.021 15 20.55 15 20C15 19.45 15.196 18.979 15.588 18.587C15.9793 18.1957 16.45 18 17 18C17.55 18 18.021 18.1957 18.413 18.587C18.8043 18.979 19 19.45 19 20C19 20.55 18.8043 21.021 18.413 21.413C18.021 21.8043 17.55 22 17 22ZM7 17C6.25 17 5.675 16.6707 5.275 16.012C4.875 15.354 4.86667 14.7 5.25 14.05L6.6 11.6L3 4H1V2H4.275L8.525 11H15.55L19.425 4L21.175 4.95L17.3 11.95C17.1167 12.2833 16.875 12.5417 16.575 12.725C16.275 12.9083 15.9333 13 15.55 13H8.1L7 15H19V17H7Z" fill="black"/>
	</symbol>

	<symbol id="remove" viewBox="0 0 24 24">
		<path d="M12 2C17.53 2 22 6.47 22 12C22 17.53 17.53 22 12 22C6.47 22 2 17.53 2 12C2 6.47 6.47 2 12 2ZM15.59 7L12 10.59L8.41 7L7 8.41L10.59 12L7 15.59L8.41 17L12 13.41L15.59 17L17 15.59L13.41 12L17 8.41L15.59 7Z"/>
	</symbol>

	<symbol id="arrow-down" viewBox="0 0 24 24">
		<path d="M14.5 18.6083L7.25 11.3583L8.94167 9.66667L14.5 15.225L20.0583 9.66667L21.75 11.3583L14.5 18.6083Z" fill="black"/>
	</symbol>

	<symbol id="sharp-arrow-down" viewBox="0 0 24 24">
		<path d="M16.6667 9.99999L15.4917 8.82499L10.8334 13.475V3.33333H9.16671V13.475L4.51671 8.81666L3.33337 9.99999L10 16.6667L16.6667 9.99999Z" fill="black"/>
	</symbol>

	<symbol id="arrow-next" viewBox="0 0 16 43">
		<path d="M16 35.1101L14.59 33.7195L9 39.2227V0H7V39.2227L1.42 33.7096L0 35.1101L8 43L16 35.1101Z" fill="white"/>
	</symbol>

	<symbol id="frame" viewBox="0 0 75 78">
		<path d="M1.5 0L1.5 75M75 76.5H0" stroke="white" stroke-width="3"/>
	</symbol>

	<symbol id="quotes" viewBox="0 0 66 52">
		<path d="M65.9996 8.95157e-07C61.3577 4.09576 57.4667 8.39631 54.3266 12.9016C51.1865 17.2706 49.1387 21.4343 48.183 25.3937H48.5926C52.4153 25.3937 55.3506 26.6224 57.3985 29.0799C59.4463 31.5374 60.4703 34.336 60.4703 37.4762V38.7049C60.4703 42.2547 59.3098 45.1898 56.9889 47.5108C54.6679 49.9683 51.5961 51.197 47.7734 51.197C43.8142 51.197 40.7423 49.8999 38.558 47.306C36.237 44.7122 35.0766 41.572 35.0766 37.8858V36.0427C35.0766 33.0393 35.6226 29.8991 36.7149 26.6224C37.8071 23.3458 39.3088 20.0692 41.2202 16.7926C42.995 13.516 45.1794 10.4442 47.7734 7.57716C50.2309 4.71012 52.8931 2.18427 55.7602 0L65.9996 8.95157e-07Z" fill="black"/>
		<path d="M31.5954 8.97481e-07C26.9536 4.09576 23.0627 8.39631 19.9224 12.9016C16.7822 17.2706 14.7343 21.4343 13.7788 25.3937H14.1884C18.011 25.3937 20.9464 26.6224 22.9943 29.0799C25.0421 31.5374 26.0661 34.336 26.0661 37.4762V38.7049C26.0661 42.2547 24.9058 45.1898 22.5847 47.5108C20.2636 49.9683 17.1918 51.197 13.3692 51.197C9.40985 51.197 6.33803 49.8999 4.15376 47.306C1.83269 44.7122 0.672363 41.572 0.672363 37.8858L0.672363 36.0427C0.672364 33.0393 1.21833 29.8991 2.31067 26.6224C3.40301 23.3458 4.90451 20.0692 6.81601 16.7926C8.5907 13.516 10.7754 10.4442 13.3692 7.57716C15.8267 4.71012 18.4889 2.18427 21.356 2.32421e-09L31.5954 8.97481e-07Z" fill="black"/>
	</symbol>

	<symbol id="plus" viewBox="0 0 24 24">
		<path d="M19 12.998H13V18.998H11V12.998H5V10.998H11V4.99799H13V10.998H19V12.998Z"/>
	</symbol>

	<symbol id="minus" viewBox="0 0 24 24">
		<path d="M19 12.998H5V10.998H19V12.998Z" fill="black"/>
	</symbol>

	<symbol id="create" viewBox="0 0 24 24">
		<path d="M3 17.25V21H6.75L17.81 9.94L14.06 6.19L3 17.25ZM20.71 7.04C20.8027 6.94749 20.8763 6.8376 20.9264 6.71663C20.9766 6.59565 21.0024 6.46597 21.0024 6.335C21.0024 6.20403 20.9766 6.07435 20.9264 5.95338C20.8763 5.83241 20.8027 5.72252 20.71 5.63L18.37 3.29C18.2775 3.1973 18.1676 3.12375 18.0466 3.07357C17.9257 3.02339 17.796 2.99756 17.665 2.99756C17.534 2.99756 17.4043 3.02339 17.2834 3.07357C17.1624 3.12375 17.0525 3.1973 16.96 3.29L15.13 5.12L18.88 8.87L20.71 7.04Z" fill="black"/>
	</symbol>

	<symbol id="edit" viewBox="0 0 24 24">
		<path d="M5 23.7001C4.45 23.7001 3.979 23.504 3.587 23.112C3.19567 22.7207 3 22.2501 3 21.7001V7.70005C3 7.15005 3.19567 6.67905 3.587 6.28705C3.979 5.89572 4.45 5.70005 5 5.70005H13.925L11.925 7.70005H5V21.7001H19V14.75L21 12.75V21.7001C21 22.2501 20.8043 22.7207 20.413 23.112C20.021 23.504 19.55 23.7001 19 23.7001H5ZM16.175 6.27505L17.6 7.67505L11 14.275V15.7H12.4L19.025 9.07505L20.45 10.475L13.25 17.7H9V13.45L16.175 6.27505ZM20.45 10.475L16.175 6.27505L18.675 3.77505C19.075 3.37505 19.5543 3.17505 20.113 3.17505C20.671 3.17505 21.1417 3.37505 21.525 3.77505L22.925 5.20005C23.3083 5.58338 23.5 6.05005 23.5 6.60005C23.5 7.15005 23.3083 7.61672 22.925 8.00005L20.45 10.475Z"/>
	</symbol>

	<symbol id="order-btn-arrow" viewBox="0 0 24 24">
		  <path d="M12 15L7 10H17L12 15Z" fill="black"/>
	</symbol>

	<symbol id="filter" viewBox="0 0 24 24">
		<path d="M14.0001 12V19.88C14.0401 20.18 13.9401 20.5 13.7101 20.71C13.6176 20.8027 13.5077 20.8763 13.3868 20.9264C13.2658 20.9766 13.1361 21.0024 13.0051 21.0024C12.8742 21.0024 12.7445 20.9766 12.6235 20.9264C12.5025 20.8763 12.3926 20.8027 12.3001 20.71L10.2901 18.7C10.1811 18.5934 10.0981 18.463 10.0478 18.319C9.99752 18.175 9.9812 18.0213 10.0001 17.87V12H9.97013L4.21013 4.62C4.04774 4.41153 3.97446 4.14726 4.00632 3.88493C4.03817 3.6226 4.17257 3.38355 4.38013 3.22C4.57013 3.08 4.78013 3 5.00013 3H19.0001C19.2201 3 19.4301 3.08 19.6201 3.22C19.8277 3.38355 19.9621 3.6226 19.9939 3.88493C20.0258 4.14726 19.9525 4.41153 19.7901 4.62L14.0301 12H14.0001Z" fill="black"/>
	</symbol>

	<symbol id="rocket" viewBox="0 0 24 24">
		<path d="M2.4498 10.5751L6.64981 6.37508C6.88314 6.14174 7.15814 5.97508 7.4748 5.87508C7.79147 5.77508 8.11647 5.75841 8.4498 5.82508L9.7498 6.10008C8.8498 7.16674 8.14147 8.13341 7.6248 9.00008C7.10814 9.86674 6.60814 10.9167 6.1248 12.1501L2.4498 10.5751ZM7.5748 12.8501C7.95814 11.6501 8.4788 10.5167 9.1368 9.45008C9.79547 8.38341 10.5915 7.38341 11.5248 6.45008C12.9915 4.98341 14.6665 3.88741 16.5498 3.16208C18.4331 2.43741 20.1915 2.21674 21.8248 2.50008C22.1081 4.13341 21.8915 5.89174 21.1748 7.77508C20.4581 9.65841 19.3665 11.3334 17.8998 12.8001C16.9831 13.7167 15.9831 14.5127 14.8998 15.1881C13.8165 15.8627 12.6748 16.3917 11.4748 16.7751L7.5748 12.8501ZM14.4748 9.85008C14.8581 10.2334 15.3291 10.4251 15.8878 10.4251C16.4458 10.4251 16.9165 10.2334 17.2998 9.85008C17.6831 9.46674 17.8748 8.99574 17.8748 8.43708C17.8748 7.87908 17.6831 7.40841 17.2998 7.02508C16.9165 6.64174 16.4458 6.45008 15.8878 6.45008C15.3291 6.45008 14.8581 6.64174 14.4748 7.02508C14.0915 7.40841 13.8998 7.87908 13.8998 8.43708C13.8998 8.99574 14.0915 9.46674 14.4748 9.85008ZM13.7748 21.8751L12.1748 18.2001C13.4081 17.7167 14.4625 17.2167 15.3378 16.7001C16.2125 16.1834 17.1831 15.4751 18.2498 14.5751L18.4998 15.8751C18.5665 16.2084 18.5498 16.5377 18.4498 16.8631C18.3498 17.1877 18.1831 17.4667 17.9498 17.7001L13.7748 21.8751ZM4.0498 16.0501C4.63314 15.4667 5.34147 15.1707 6.1748 15.1621C7.00814 15.1541 7.71647 15.4417 8.2998 16.0251C8.88314 16.6084 9.1748 17.3167 9.1748 18.1501C9.1748 18.9834 8.88314 19.6917 8.2998 20.2751C7.88314 20.6917 7.18747 21.0501 6.2128 21.3501C5.23747 21.6501 3.89147 21.9167 2.1748 22.1501C2.40814 20.4334 2.6748 19.0917 2.9748 18.1251C3.2748 17.1584 3.63314 16.4667 4.0498 16.0501Z"/>
	</symbol>

	<symbol id="cart" viewBox="0 0 24 24">
		<path d="M7 22C6.45 22 5.97933 21.8043 5.588 21.413C5.196 21.021 5 20.55 5 20C5 19.45 5.196 18.979 5.588 18.587C5.97933 18.1957 6.45 18 7 18C7.55 18 8.02067 18.1957 8.412 18.587C8.804 18.979 9 19.45 9 20C9 20.55 8.804 21.021 8.412 21.413C8.02067 21.8043 7.55 22 7 22ZM17 22C16.45 22 15.9793 21.8043 15.588 21.413C15.196 21.021 15 20.55 15 20C15 19.45 15.196 18.979 15.588 18.587C15.9793 18.1957 16.45 18 17 18C17.55 18 18.021 18.1957 18.413 18.587C18.8043 18.979 19 19.45 19 20C19 20.55 18.8043 21.021 18.413 21.413C18.021 21.8043 17.55 22 17 22ZM6.15 6L8.55 11H15.55L18.3 6H6.15ZM5.2 4H19.95C20.3333 4 20.625 4.17067 20.825 4.512C21.025 4.854 21.0333 5.2 20.85 5.55L17.3 11.95C17.1167 12.2833 16.8707 12.5417 16.562 12.725C16.254 12.9083 15.9167 13 15.55 13H8.1L7 15H19V17H7C6.25 17 5.68333 16.6707 5.3 16.012C4.91667 15.354 4.9 14.7 5.25 14.05L6.6 11.6L3 4H1V2H4.25L5.2 4Z"/>
	</symbol>

	<symbol id="dollar" viewBox="0 0 24 24">
		<path d="M7 15H9C9 16.08 10.37 17 12 17C13.63 17 15 16.08 15 15C15 13.9 13.96 13.5 11.76 12.97C9.64 12.44 7 11.78 7 9C7 7.21 8.47 5.69 10.5 5.18V3H13.5V5.18C15.53 5.69 17 7.21 17 9H15C15 7.92 13.63 7 12 7C10.37 7 9 7.92 9 9C9 10.1 10.04 10.5 12.24 11.03C14.36 11.56 17 12.22 17 15C17 16.79 15.53 18.31 13.5 18.82V21H10.5V18.82C8.47 18.31 7 16.79 7 15Z"/>
	</symbol>

	<symbol id="category" viewBox="0 0 24 24">
		<path d="M6.5 11L12 2L17.5 11H6.5ZM17.5 22C16.25 22 15.1873 21.5623 14.312 20.687C13.4367 19.8117 12.9993 18.7493 13 17.5C13 16.25 13.4377 15.1873 14.313 14.312C15.1883 13.4367 16.2507 12.9993 17.5 13C18.75 13 19.8127 13.4377 20.688 14.313C21.5633 15.1883 22.0007 16.2507 22 17.5C22 18.75 21.5623 19.8127 20.687 20.688C19.8117 21.5633 18.7493 22.0007 17.5 22ZM3 21.5V13.5H11V21.5H3Z"/>
	</symbol>

	<symbol id="" viewBox="0 0 24 24">
		
	</symbol>
</svg>