<svg xmlns="http://www.w3.org/2000/svg">
	<symbol id="logo" viewBox="0 0 37 45">
		<path d="M5.40351 13.1864L18.4998 0L31.5961 13.1864C35.1984 16.8133 37 21.5935 37 26.3728C37 31.1521 35.1984 35.9323 31.5961 39.5592C29.1392 42.0328 26.1499 43.6627 22.9913 44.4496V42.305C25.6144 41.5641 28.0872 40.1599 30.14 38.093C33.3399 34.8706 34.9404 30.6221 34.9404 26.3728C34.9404 22.1235 33.3399 17.8746 30.14 14.6526L18.4998 2.93243L6.8596 14.6526C3.6592 17.8746 2.05922 22.1235 2.05922 26.3728C2.05922 30.6221 3.65963 34.871 6.8596 38.093C9.8123 41.0662 13.6339 42.6679 17.5223 42.8975V38.741C14.6911 38.5179 11.9223 37.3247 9.7731 35.1605C7.3757 32.7468 6.17765 29.5592 6.17765 26.3728C6.17765 23.1864 7.3757 19.9988 9.77223 17.5855L18.4998 8.79774L27.2269 17.5855C29.6239 19.9988 30.8223 23.1864 30.8223 26.3728C30.8223 29.5592 29.6239 32.7468 27.2278 35.1597C25.9862 36.4097 24.5383 37.336 22.9913 37.9385V35.6801C23.9985 35.1922 24.9402 34.5303 25.7704 33.6943C27.7654 31.6856 28.7627 29.0296 28.7627 26.3728C28.7627 23.716 27.7654 21.06 25.7717 19.0521L19.5819 12.8196V29.1902V36.6498V38.7328V42.891V44.9683C19.2214 44.9896 18.8608 45 18.4998 45C13.7537 45 9.00584 43.1861 5.40351 39.5592C1.80117 35.9323 0 31.1521 0 26.3728C0 21.5935 1.80117 16.8133 5.40351 13.1864ZM17.5223 21.7293L8.73444 29.5791C9.21564 31.0883 10.0475 32.5046 11.2283 33.6935L11.3132 33.7781L17.5223 28.0517V21.7293ZM8.27176 27.2314L17.5223 18.9684V12.7142L11.2288 19.0517C9.23417 21.06 8.23687 23.716 8.23687 26.3728C8.23687 26.6593 8.2485 26.9457 8.27176 27.2314ZM17.5223 30.8509L12.9377 35.0789C14.3383 35.9813 15.9154 36.5087 17.5223 36.6602V30.8509Z"/>
	</symbol>

	<symbol id="black-logo" viewBox="0 0 37 45">
		<path d="M5.40351 13.1864L18.4998 0L31.5961 13.1864C35.1984 16.8133 37 21.5935 37 26.3728C37 31.1521 35.1984 35.9323 31.5961 39.5592C29.1392 42.0328 26.1499 43.6627 22.9913 44.4496V42.305C25.6144 41.5641 28.0872 40.1599 30.14 38.093C33.3399 34.8706 34.9404 30.6221 34.9404 26.3728C34.9404 22.1235 33.3399 17.8746 30.14 14.6526L18.4998 2.93243L6.8596 14.6526C3.6592 17.8746 2.05922 22.1235 2.05922 26.3728C2.05922 30.6221 3.65963 34.871 6.8596 38.093C9.8123 41.0662 13.6339 42.6679 17.5223 42.8975V38.741C14.6911 38.5179 11.9223 37.3247 9.7731 35.1605C7.3757 32.7468 6.17765 29.5592 6.17765 26.3728C6.17765 23.1864 7.3757 19.9988 9.77223 17.5855L18.4998 8.79774L27.2269 17.5855C29.6239 19.9988 30.8223 23.1864 30.8223 26.3728C30.8223 29.5592 29.6239 32.7468 27.2278 35.1597C25.9862 36.4097 24.5383 37.336 22.9913 37.9385V35.6801C23.9985 35.1922 24.9402 34.5303 25.7704 33.6943C27.7654 31.6856 28.7627 29.0296 28.7627 26.3728C28.7627 23.716 27.7654 21.06 25.7717 19.0521L19.5819 12.8196V29.1902V36.6498V38.7328V42.891V44.9683C19.2214 44.9896 18.8608 45 18.4998 45C13.7537 45 9.00584 43.1861 5.40351 39.5592C1.80117 35.9323 0 31.1521 0 26.3728C0 21.5935 1.80117 16.8133 5.40351 13.1864ZM17.5223 21.7293L8.73444 29.5791C9.21564 31.0883 10.0475 32.5046 11.2283 33.6935L11.3132 33.7781L17.5223 28.0517V21.7293ZM8.27176 27.2314L17.5223 18.9684V12.7142L11.2288 19.0517C9.23417 21.06 8.23687 23.716 8.23687 26.3728C8.23687 26.6593 8.2485 26.9457 8.27176 27.2314ZM17.5223 30.8509L12.9377 35.0789C14.3383 35.9813 15.9154 36.5087 17.5223 36.6602V30.8509Z" fill="black"/>
	</symbol>

	<symbol id="basket" viewBox="0 0 24 24">
		<g clip-path="url(#clip0_38_33)">
			<path d="M8.6355 1.6065C8.72002 1.65711 8.79374 1.72388 8.85245 1.80299C8.91116 1.8821 8.95371 1.972 8.97767 2.06756C9.00163 2.16311 9.00652 2.26245 8.99208 2.3599C8.97764 2.45735 8.94414 2.551 8.8935 2.6355L5.0745 9H18.9255L15.105 2.6355C15.0028 2.46484 14.9725 2.26054 15.0209 2.06757C15.0693 1.87459 15.1923 1.70874 15.363 1.6065C15.5337 1.50426 15.738 1.474 15.9309 1.52239C16.1239 1.57077 16.2898 1.69384 16.392 1.8645L20.6745 9H22.5C22.8978 9 23.2794 9.15804 23.5607 9.43934C23.842 9.72065 24 10.1022 24 10.5V12C24 12.3978 23.842 12.7794 23.5607 13.0607C23.2794 13.342 22.8978 13.5 22.5 13.5V20.25C22.5 21.2446 22.1049 22.1984 21.4016 22.9017C20.6984 23.6049 19.7446 24 18.75 24H5.25C4.25544 24 3.30161 23.6049 2.59835 22.9017C1.89509 22.1984 1.5 21.2446 1.5 20.25V13.5C1.10218 13.5 0.720644 13.342 0.43934 13.0607C0.158035 12.7794 0 12.3978 0 12V10.5C0 10.1022 0.158035 9.72065 0.43934 9.43934C0.720644 9.15804 1.10218 9 1.5 9H3.3255L7.605 1.8645C7.65561 1.77998 7.72238 1.70626 7.80149 1.64755C7.8806 1.58884 7.9705 1.54629 8.06605 1.52233C8.16161 1.49838 8.26095 1.49348 8.3584 1.50792C8.45585 1.52236 8.5495 1.55586 8.634 1.6065H8.6355ZM3 13.5V20.25C3 20.8467 3.23705 21.419 3.65901 21.841C4.08097 22.263 4.65326 22.5 5.25 22.5H18.75C19.3467 22.5 19.919 22.263 20.341 21.841C20.7629 21.419 21 20.8467 21 20.25V13.5H3ZM1.5 10.5V12H22.5V10.5H1.5ZM6 15C6.19891 15 6.38968 15.079 6.53033 15.2197C6.67098 15.3603 6.75 15.5511 6.75 15.75V20.25C6.75 20.4489 6.67098 20.6397 6.53033 20.7803C6.38968 20.921 6.19891 21 6 21C5.80109 21 5.61032 20.921 5.46967 20.7803C5.32902 20.6397 5.25 20.4489 5.25 20.25V15.75C5.25 15.5511 5.32902 15.3603 5.46967 15.2197C5.61032 15.079 5.80109 15 6 15ZM9 15C9.19891 15 9.38968 15.079 9.53033 15.2197C9.67098 15.3603 9.75 15.5511 9.75 15.75V20.25C9.75 20.4489 9.67098 20.6397 9.53033 20.7803C9.38968 20.921 9.19891 21 9 21C8.80109 21 8.61032 20.921 8.46967 20.7803C8.32902 20.6397 8.25 20.4489 8.25 20.25V15.75C8.25 15.5511 8.32902 15.3603 8.46967 15.2197C8.61032 15.079 8.80109 15 9 15ZM12 15C12.1989 15 12.3897 15.079 12.5303 15.2197C12.671 15.3603 12.75 15.5511 12.75 15.75V20.25C12.75 20.4489 12.671 20.6397 12.5303 20.7803C12.3897 20.921 12.1989 21 12 21C11.8011 21 11.6103 20.921 11.4697 20.7803C11.329 20.6397 11.25 20.4489 11.25 20.25V15.75C11.25 15.5511 11.329 15.3603 11.4697 15.2197C11.6103 15.079 11.8011 15 12 15ZM15 15C15.1989 15 15.3897 15.079 15.5303 15.2197C15.671 15.3603 15.75 15.5511 15.75 15.75V20.25C15.75 20.4489 15.671 20.6397 15.5303 20.7803C15.3897 20.921 15.1989 21 15 21C14.8011 21 14.6103 20.921 14.4697 20.7803C14.329 20.6397 14.25 20.4489 14.25 20.25V15.75C14.25 15.5511 14.329 15.3603 14.4697 15.2197C14.6103 15.079 14.8011 15 15 15ZM18 15C18.1989 15 18.3897 15.079 18.5303 15.2197C18.671 15.3603 18.75 15.5511 18.75 15.75V20.25C18.75 20.4489 18.671 20.6397 18.5303 20.7803C18.3897 20.921 18.1989 21 18 21C17.8011 21 17.6103 20.921 17.4697 20.7803C17.329 20.6397 17.25 20.4489 17.25 20.25V15.75C17.25 15.5511 17.329 15.3603 17.4697 15.2197C17.6103 15.079 17.8011 15 18 15Z"/>
			</g>
			<defs>
				<clipPath id="clip0_38_33">
					<rect width="24" height="24" fill="white"/>
				</clipPath>
			</defs>
	</symbol>

	<symbol id="account" viewBox="0 0 24 24">
		<g clip-path="url(#clip0_38_35)">
			<path d="M16.5 9C16.5 10.1935 16.0259 11.3381 15.182 12.182C14.3381 13.0259 13.1935 13.5 12 13.5C10.8065 13.5 9.66193 13.0259 8.81802 12.182C7.97411 11.3381 7.5 10.1935 7.5 9C7.5 7.80653 7.97411 6.66193 8.81802 5.81802C9.66193 4.97411 10.8065 4.5 12 4.5C13.1935 4.5 14.3381 4.97411 15.182 5.81802C16.0259 6.66193 16.5 7.80653 16.5 9Z" />
			<path fill-rule="evenodd" clip-rule="evenodd" d="M0 12C0 8.8174 1.26428 5.76516 3.51472 3.51472C5.76516 1.26428 8.8174 0 12 0C15.1826 0 18.2348 1.26428 20.4853 3.51472C22.7357 5.76516 24 8.8174 24 12C24 15.1826 22.7357 18.2348 20.4853 20.4853C18.2348 22.7357 15.1826 24 12 24C8.8174 24 5.76516 22.7357 3.51472 20.4853C1.26428 18.2348 0 15.1826 0 12ZM12 1.5C10.0227 1.50011 8.08555 2.05854 6.4116 3.11104C4.73766 4.16354 3.39492 5.66732 2.53795 7.44929C1.68097 9.23127 1.34458 11.219 1.5675 13.1837C1.79042 15.1485 2.56358 17.0103 3.798 18.555C4.863 16.839 7.2075 15 12 15C16.7925 15 19.1355 16.8375 20.202 18.555C21.4364 17.0103 22.2096 15.1485 22.4325 13.1837C22.6554 11.219 22.319 9.23127 21.4621 7.44929C20.6051 5.66732 19.2623 4.16354 17.5884 3.11104C15.9145 2.05854 13.9773 1.50011 12 1.5Z" />
			</g>
			<defs>
				<clipPath id="clip0_38_35">
					<rect width="24" height="24" fill="white"/>
				</clipPath>
			</defs>
	</symbol>

	<symbol id="twitter" viewBox="0 0 40 40">
		<path d="M37.4333 9.99984C36.15 10.5832 34.7667 10.9665 33.3333 11.1498C34.8 10.2665 35.9333 8.8665 36.4667 7.18317C35.0833 8.0165 33.55 8.59984 31.9333 8.93317C30.6166 7.49984 28.7667 6.6665 26.6667 6.6665C22.75 6.6665 19.55 9.8665 19.55 13.8165C19.55 14.3832 19.6167 14.9332 19.7333 15.4498C13.8 15.1498 8.51665 12.2998 4.99998 7.98317C4.38332 9.03317 4.03332 10.2665 4.03332 11.5665C4.03332 14.0498 5.28332 16.2498 7.21665 17.4998C6.03332 17.4998 4.93332 17.1665 3.96665 16.6665V16.7165C3.96665 20.1832 6.43332 23.0832 9.69998 23.7332C8.6512 24.0202 7.55014 24.0601 6.48332 23.8498C6.936 25.2706 7.82255 26.5139 9.01834 27.4047C10.2141 28.2956 11.6591 28.7893 13.15 28.8165C10.6227 30.8172 7.48998 31.8987 4.26665 31.8832C3.69998 31.8832 3.13332 31.8498 2.56665 31.7832C5.73332 33.8165 9.49998 34.9998 13.5333 34.9998C26.6667 34.9998 33.8833 24.0998 33.8833 14.6498C33.8833 14.3332 33.8833 14.0332 33.8666 13.7165C35.2666 12.7165 36.4666 11.4498 37.4333 9.99984V9.99984Z" fill="white"/>
	</symbol>

	<symbol id="linkedin" viewBox="0 0 40 40">
		<path d="M11.5666 8.33354C11.5661 9.21759 11.2145 10.0653 10.5891 10.6901C9.96365 11.3149 9.11562 11.6656 8.23157 11.6652C7.34751 11.6648 6.49984 11.3131 5.87503 10.6877C5.25023 10.0623 4.89946 9.21426 4.8999 8.3302C4.90034 7.44615 5.25196 6.59848 5.87739 5.97367C6.50283 5.34886 7.35085 4.99809 8.2349 4.99854C9.11896 4.99898 9.96663 5.35059 10.5914 5.97602C11.2162 6.60146 11.567 7.44948 11.5666 8.33354V8.33354ZM11.6666 14.1335H4.9999V35.0002H11.6666V14.1335ZM22.1999 14.1335H15.5666V35.0002H22.1332V24.0502C22.1332 17.9502 30.0832 17.3835 30.0832 24.0502V35.0002H36.6666V21.7835C36.6666 11.5002 24.8999 11.8835 22.1332 16.9335L22.1999 14.1335V14.1335Z" fill="white"/>
	</symbol>

	<symbol id="facebook" viewBox="0 0 40 40">
		<path d="M36.6666 20.0002C36.6666 10.8002 29.1999 3.3335 19.9999 3.3335C10.7999 3.3335 3.33325 10.8002 3.33325 20.0002C3.33325 28.0668 9.06659 34.7835 16.6666 36.3335V25.0002H13.3333V20.0002H16.6666V15.8335C16.6666 12.6168 19.2833 10.0002 22.4999 10.0002H26.6666V15.0002H23.3333C22.4166 15.0002 21.6666 15.7502 21.6666 16.6668V20.0002H26.6666V25.0002H21.6666V36.5835C30.0833 35.7502 36.6666 28.6502 36.6666 20.0002Z" fill="white"/>
	</symbol>

	<symbol id="instagram" viewBox="0 0 40 40">
		<path d="M19.9999 3.3335C24.5283 3.3335 25.0933 3.35016 26.8699 3.4335C28.6449 3.51683 29.8533 3.79516 30.9166 4.2085C32.0166 4.63183 32.9433 5.20516 33.8699 6.13016C34.7174 6.96332 35.3732 7.97114 35.7916 9.0835C36.2033 10.1452 36.4833 11.3552 36.5666 13.1302C36.6449 14.9068 36.6666 15.4718 36.6666 20.0002C36.6666 24.5285 36.6499 25.0935 36.5666 26.8702C36.4833 28.6452 36.2033 29.8535 35.7916 30.9168C35.3744 32.0298 34.7185 33.0379 33.8699 33.8702C33.0365 34.7174 32.0288 35.3731 30.9166 35.7918C29.8549 36.2035 28.6449 36.4835 26.8699 36.5668C25.0933 36.6452 24.5283 36.6668 19.9999 36.6668C15.4716 36.6668 14.9066 36.6502 13.1299 36.5668C11.3549 36.4835 10.1466 36.2035 9.08325 35.7918C7.97046 35.3743 6.96246 34.7184 6.12992 33.8702C5.28226 33.0371 4.62647 32.0293 4.20825 30.9168C3.79492 29.8552 3.51659 28.6452 3.43325 26.8702C3.35492 25.0935 3.33325 24.5285 3.33325 20.0002C3.33325 15.4718 3.34992 14.9068 3.43325 13.1302C3.51659 11.3535 3.79492 10.1468 4.20825 9.0835C4.62531 7.97046 5.28126 6.96236 6.12992 6.13016C6.9627 5.28221 7.97063 4.62638 9.08325 4.2085C10.1466 3.79516 11.3533 3.51683 13.1299 3.4335C14.9066 3.35516 15.4716 3.3335 19.9999 3.3335ZM19.9999 11.6668C17.7898 11.6668 15.6702 12.5448 14.1074 14.1076C12.5446 15.6704 11.6666 17.79 11.6666 20.0002C11.6666 22.2103 12.5446 24.3299 14.1074 25.8927C15.6702 27.4555 17.7898 28.3335 19.9999 28.3335C22.2101 28.3335 24.3297 27.4555 25.8925 25.8927C27.4553 24.3299 28.3333 22.2103 28.3333 20.0002C28.3333 17.79 27.4553 15.6704 25.8925 14.1076C24.3297 12.5448 22.2101 11.6668 19.9999 11.6668V11.6668ZM30.8333 11.2502C30.8333 10.6976 30.6138 10.1677 30.2231 9.77702C29.8324 9.38632 29.3025 9.16683 28.7499 9.16683C28.1974 9.16683 27.6675 9.38632 27.2768 9.77702C26.8861 10.1677 26.6666 10.6976 26.6666 11.2502C26.6666 11.8027 26.8861 12.3326 27.2768 12.7233C27.6675 13.114 28.1974 13.3335 28.7499 13.3335C29.3025 13.3335 29.8324 13.114 30.2231 12.7233C30.6138 12.3326 30.8333 11.8027 30.8333 11.2502ZM19.9999 15.0002C21.326 15.0002 22.5978 15.5269 23.5355 16.4646C24.4731 17.4023 24.9999 18.6741 24.9999 20.0002C24.9999 21.3262 24.4731 22.598 23.5355 23.5357C22.5978 24.4734 21.326 25.0002 19.9999 25.0002C18.6738 25.0002 17.4021 24.4734 16.4644 23.5357C15.5267 22.598 14.9999 21.3262 14.9999 20.0002C14.9999 18.6741 15.5267 17.4023 16.4644 16.4646C17.4021 15.5269 18.6738 15.0002 19.9999 15.0002V15.0002Z" fill="white"/>
	</symbol>

	<symbol id="add-to-cart" viewBox="0 0 24 24">
		<path d="M11 9V6H8V4H11V1H13V4H16V6H13V9H11ZM7 22C6.45 22 5.97933 21.8043 5.588 21.413C5.196 21.021 5 20.55 5 20C5 19.45 5.196 18.979 5.588 18.587C5.97933 18.1957 6.45 18 7 18C7.55 18 8.02067 18.1957 8.412 18.587C8.804 18.979 9 19.45 9 20C9 20.55 8.804 21.021 8.412 21.413C8.02067 21.8043 7.55 22 7 22ZM17 22C16.45 22 15.9793 21.8043 15.588 21.413C15.196 21.021 15 20.55 15 20C15 19.45 15.196 18.979 15.588 18.587C15.9793 18.1957 16.45 18 17 18C17.55 18 18.021 18.1957 18.413 18.587C18.8043 18.979 19 19.45 19 20C19 20.55 18.8043 21.021 18.413 21.413C18.021 21.8043 17.55 22 17 22ZM7 17C6.25 17 5.675 16.6707 5.275 16.012C4.875 15.354 4.86667 14.7 5.25 14.05L6.6 11.6L3 4H1V2H4.275L8.525 11H15.55L19.425 4L21.175 4.95L17.3 11.95C17.1167 12.2833 16.875 12.5417 16.575 12.725C16.275 12.9083 15.9333 13 15.55 13H8.1L7 15H19V17H7Z" fill="black"/>
	</symbol>

	<symbol id="remove" viewBox="0 0 24 24">
		<path d="M12 2C17.53 2 22 6.47 22 12C22 17.53 17.53 22 12 22C6.47 22 2 17.53 2 12C2 6.47 6.47 2 12 2ZM15.59 7L12 10.59L8.41 7L7 8.41L10.59 12L7 15.59L8.41 17L12 13.41L15.59 17L17 15.59L13.41 12L17 8.41L15.59 7Z"/>
	</symbol>

	<symbol id="arrow-down" viewBox="0 0 24 24">
		<path d="M14.5 18.6083L7.25 11.3583L8.94167 9.66667L14.5 15.225L20.0583 9.66667L21.75 11.3583L14.5 18.6083Z" fill="black"/>
	</symbol>

	<symbol id="sharp-arrow-down" viewBox="0 0 24 24">
		<path d="M16.6667 9.99999L15.4917 8.82499L10.8334 13.475V3.33333H9.16671V13.475L4.51671 8.81666L3.33337 9.99999L10 16.6667L16.6667 9.99999Z" fill="black"/>
	</symbol>

	<symbol id="arrow-next" viewBox="0 0 16 43">
		<path d="M16 35.1101L14.59 33.7195L9 39.2227V0H7V39.2227L1.42 33.7096L0 35.1101L8 43L16 35.1101Z" fill="white"/>
	</symbol>

	<symbol id="frame" viewBox="0 0 75 78">
		<path d="M1.5 0L1.5 75M75 76.5H0" stroke="white" stroke-width="3"/>
	</symbol>

	<symbol id="quotes" viewBox="0 0 66 52">
		<path d="M65.9996 8.95157e-07C61.3577 4.09576 57.4667 8.39631 54.3266 12.9016C51.1865 17.2706 49.1387 21.4343 48.183 25.3937H48.5926C52.4153 25.3937 55.3506 26.6224 57.3985 29.0799C59.4463 31.5374 60.4703 34.336 60.4703 37.4762V38.7049C60.4703 42.2547 59.3098 45.1898 56.9889 47.5108C54.6679 49.9683 51.5961 51.197 47.7734 51.197C43.8142 51.197 40.7423 49.8999 38.558 47.306C36.237 44.7122 35.0766 41.572 35.0766 37.8858V36.0427C35.0766 33.0393 35.6226 29.8991 36.7149 26.6224C37.8071 23.3458 39.3088 20.0692 41.2202 16.7926C42.995 13.516 45.1794 10.4442 47.7734 7.57716C50.2309 4.71012 52.8931 2.18427 55.7602 0L65.9996 8.95157e-07Z" fill="black"/>
		<path d="M31.5954 8.97481e-07C26.9536 4.09576 23.0627 8.39631 19.9224 12.9016C16.7822 17.2706 14.7343 21.4343 13.7788 25.3937H14.1884C18.011 25.3937 20.9464 26.6224 22.9943 29.0799C25.0421 31.5374 26.0661 34.336 26.0661 37.4762V38.7049C26.0661 42.2547 24.9058 45.1898 22.5847 47.5108C20.2636 49.9683 17.1918 51.197 13.3692 51.197C9.40985 51.197 6.33803 49.8999 4.15376 47.306C1.83269 44.7122 0.672363 41.572 0.672363 37.8858L0.672363 36.0427C0.672364 33.0393 1.21833 29.8991 2.31067 26.6224C3.40301 23.3458 4.90451 20.0692 6.81601 16.7926C8.5907 13.516 10.7754 10.4442 13.3692 7.57716C15.8267 4.71012 18.4889 2.18427 21.356 2.32421e-09L31.5954 8.97481e-07Z" fill="black"/>
	</symbol>

	<symbol id="plus" viewBox="0 0 24 24">
		<path d="M19 12.998H13V18.998H11V12.998H5V10.998H11V4.99799H13V10.998H19V12.998Z" fill="black"/>
	</symbol>

	<symbol id="minus" viewBox="0 0 24 24">
		<path d="M19 12.998H5V10.998H19V12.998Z" fill="black"/>
	</symbol>

	<symbol id="google" viewBox="0 0 24 24">
		<g clip-path="url(#clip0_252_223)">
		<path d="M23.4438 12.2245C23.4438 11.2413 23.364 10.5237 23.1913 9.77963H11.9634V14.2176H18.5539C18.4211 15.3205 17.7036 16.9815 16.1091 18.0976L16.0867 18.2461L19.6368 20.9963L19.8827 21.0209C22.1416 18.9347 23.4438 15.8653 23.4438 12.2245Z" fill="#4285F4"/>
		<path d="M11.9635 23.9176C15.1923 23.9176 17.9029 22.8545 19.8828 21.0209L16.1092 18.0976C15.0993 18.8018 13.744 19.2934 11.9635 19.2934C8.80107 19.2934 6.11701 17.2074 5.16021 14.324L5.01997 14.3359L1.32855 17.1927L1.28027 17.3269C3.24681 21.2334 7.28623 23.9176 11.9635 23.9176Z" fill="#34A853"/>
		<path d="M5.16039 14.324C4.90794 13.5799 4.76183 12.7826 4.76183 11.9588C4.76183 11.1349 4.90794 10.3377 5.14711 9.59359L5.14042 9.43511L1.40275 6.53239L1.28046 6.59056C0.469952 8.21166 0.00488281 10.0321 0.00488281 11.9588C0.00488281 13.8855 0.469952 15.7058 1.28046 17.3269L5.16039 14.324Z" fill="#FBBC05"/>
		<path d="M11.9635 4.62403C14.209 4.62403 15.7238 5.59402 16.5875 6.40461L19.9625 3.10928C17.8897 1.1826 15.1923 0 11.9635 0C7.28623 0 3.24681 2.68406 1.28027 6.59056L5.14693 9.59359C6.11701 6.7102 8.80107 4.62403 11.9635 4.62403Z" fill="#EB4335"/>
		</g>
		<defs>
		<clipPath id="clip0_252_223">
		<rect width="23.46" height="24" fill="white"/>
		</clipPath>
		</defs>
	</symbol>

	<symbol id="edit" viewBox="0 0 24 24">
		<path d="M5 23.7001C4.45 23.7001 3.979 23.504 3.587 23.112C3.19567 22.7207 3 22.2501 3 21.7001V7.70005C3 7.15005 3.19567 6.67905 3.587 6.28705C3.979 5.89572 4.45 5.70005 5 5.70005H13.925L11.925 7.70005H5V21.7001H19V14.75L21 12.75V21.7001C21 22.2501 20.8043 22.7207 20.413 23.112C20.021 23.504 19.55 23.7001 19 23.7001H5ZM16.175 6.27505L17.6 7.67505L11 14.275V15.7H12.4L19.025 9.07505L20.45 10.475L13.25 17.7H9V13.45L16.175 6.27505ZM20.45 10.475L16.175 6.27505L18.675 3.77505C19.075 3.37505 19.5543 3.17505 20.113 3.17505C20.671 3.17505 21.1417 3.37505 21.525 3.77505L22.925 5.20005C23.3083 5.58338 23.5 6.05005 23.5 6.60005C23.5 7.15005 23.3083 7.61672 22.925 8.00005L20.45 10.475Z"/>
	</symbol>

	<symbol id="order-btn-arrow" viewBox="0 0 24 24">
		  <path d="M12 15L7 10H17L12 15Z" fill="black"/>
	</symbol>

	<symbol id="" viewBox="0 0 24 24">
		
	</symbol>
</svg>